<?xml version="1.0" encoding="UTF-8"?><svg id="Camada_1" xmlns="https://www.w3.org/2000/svg" viewBox="0 0 239.47 12.51"><defs><style>.cls-1{fill:none;stroke:#52302c;stroke-miterlimit:10;stroke-width:.85px;}</style></defs><polyline class="cls-1" points=".34 1.61 7.84 11.79 15.26 1.55 22.77 11.73 30.19 1.49 37.68 11.67 45.1 1.44 52.6 11.61 60.01 1.38 67.51 11.55 74.93 1.32 82.43 11.49 89.85 1.26 97.35 11.43 104.77 1.2 112.27 11.37 119.69 1.14 127.2 11.31 134.62 1.08 142.12 11.25 149.54 1.02 157.05 11.19 164.47 .96 171.98 11.13 179.4 .9 186.9 11.07 194.32 .84 201.83 11.01 209.25 .78 216.76 10.95 224.18 .72 231.69 10.89 239.12 .66"/></svg>