<?xml version="1.0" encoding="UTF-8"?><svg id="Camada_1" xmlns="http://www.w3.org/2000/svg" viewBox="0 0 11.64 241.42"><defs><style>.cls-1{fill:none;stroke:#edc135;stroke-miterlimit:10;stroke-width:.85px;}</style></defs><polyline class="cls-1" points=".72 241.08 10.92 233.56 .72 226.04 10.92 218.51 .72 210.99 10.92 203.48 .72 195.96 10.92 188.44 .72 180.92 10.92 173.4 .72 165.88 10.92 158.36 .72 150.84 10.92 143.32 .72 135.79 10.92 128.27 .72 120.75 10.92 113.23 .72 105.7 10.92 98.18 .72 90.66 10.92 83.13 .72 75.61 10.92 68.08 .72 60.56 10.92 53.04 .72 45.51 10.92 37.99 .72 30.46 10.92 22.93 .72 15.41 10.92 7.87 .72 .34"/></svg>