<svg xmlns="http://www.w3.org/2000/svg" version="1.1" xmlns:xlink="http://www.w3.org/1999/xlink" width="512" height="512" x="0" y="0" viewBox="0 0 512 512" style="enable-background:new 0 0 512 512" xml:space="preserve" class=""><g><g fill-rule="evenodd" clip-rule="evenodd"><path fill="#9bc9ff" d="M417.846 132.552c21.186 0 38.407-17.224 38.407-38.41 0-21.181-17.225-38.41-38.407-38.41s-38.407 17.229-38.407 38.41c0 21.186 17.221 38.41 38.407 38.41zM94.158 379.451c-21.186 0-38.407 17.224-38.407 38.41 0 21.18 17.224 38.41 38.407 38.41 21.157 0 38.407-17.251 38.407-38.41 0-21.163-17.245-38.41-38.407-38.41zm374.713-250.864 12.898 17.826-11.67 11.635-17.806-12.897c-1.268-.918-3.038-1.01-4.387-.21a58.747 58.747 0 0 1-15.387 6.384c-1.515.388-2.701 1.653-2.934 3.207l-3.468 21.749h-16.495l-3.462-21.712a4 4 0 0 0-2.982-3.244 58.481 58.481 0 0 1-15.395-6.387 3.998 3.998 0 0 0-4.383.212l-17.816 12.904-11.606-11.652 12.891-17.817c.93-1.285.986-3.024.179-4.384-2.847-4.795-4.965-9.978-6.374-15.37-.4-1.53-1.654-2.731-3.225-2.982l-21.717-3.478V85.912l21.717-3.481c1.566-.251 2.826-1.444 3.225-2.971 1.411-5.397 3.525-10.582 6.374-15.381.807-1.359.753-3.097-.178-4.382L353.976 41.89l11.608-11.649 17.815 12.901a4.011 4.011 0 0 0 4.388.198 58.94 58.94 0 0 1 15.386-6.384c1.553-.398 2.733-1.655 2.987-3.244l3.462-21.71h16.495l3.468 21.747c.233 1.553 1.421 2.819 2.934 3.207a58.76 58.76 0 0 1 15.386 6.384c1.348.799 3.118.721 4.388-.198l17.806-12.894L481.77 41.88l-12.9 17.817c-.931 1.286-1.038 3.012-.225 4.382a58.533 58.533 0 0 1 6.379 15.402c.397 1.551 1.693 2.697 3.267 2.95l21.716 3.481v16.461l-21.717 3.478a4.015 4.015 0 0 0-3.267 2.961 58.498 58.498 0 0 1-6.38 15.391c-.811 1.371-.702 3.098.228 4.384zm-218.935 41.111 19.984 34.533H167.755v-28.639c0-7.872 6.42-14.251 14.284-14.251h53.398c6.178 0 11.404 3.009 14.499 8.357zm-103.514 184.26 11.606 11.652-12.893 17.807c-.93 1.285-.985 3.023-.178 4.383 2.847 4.795 4.965 9.978 6.374 15.37.4 1.53 1.654 2.731 3.225 2.983l21.717 3.478v16.461l-21.717 3.48c-1.561.25-2.83 1.431-3.22 2.959a58.623 58.623 0 0 1-6.379 15.393c-.807 1.359-.752 3.096.178 4.381l12.893 17.808-11.607 11.653-17.816-12.904a4.005 4.005 0 0 0-4.388-.198 58.94 58.94 0 0 1-15.386 6.384c-1.555.399-2.733 1.655-2.987 3.245l-3.462 21.71H85.887l-3.468-21.747c-.233-1.554-1.42-2.819-2.934-3.208a58.775 58.775 0 0 1-15.386-6.384c-1.348-.799-3.118-.721-4.388.198l-17.806 12.897-11.671-11.636 12.9-17.817c.931-1.285 1.038-3.011.225-4.381a58.499 58.499 0 0 1-6.379-15.402c-.396-1.551-1.692-2.698-3.267-2.951l-21.717-3.48V409.63l21.717-3.478a4.014 4.014 0 0 0 3.266-2.961 58.498 58.498 0 0 1 6.38-15.391c.813-1.37.706-3.097-.225-4.383l-12.9-17.817 11.67-11.635 17.806 12.886a4.041 4.041 0 0 0 4.385.201 58.337 58.337 0 0 1 15.395-6.376c1.514-.386 2.697-1.655 2.929-3.206l3.468-21.749h16.495l3.462 21.712a4 4 0 0 0 2.982 3.244c5.409 1.379 10.58 3.544 15.385 6.381a4.018 4.018 0 0 0 4.395-.207z" opacity="1" data-original="#9bc9ff" class=""></path><path fill="#57a4ff" d="M120.574 417.861c0-14.559-11.887-26.41-26.416-26.41-14.576 0-26.416 11.852-26.416 26.41 0 14.56 11.84 26.411 26.416 26.411 14.529 0 26.416-11.851 26.416-26.411zm15.991 0c0 23.381-19.057 42.41-42.407 42.41-23.397 0-42.407-19.028-42.407-42.41 0-23.39 19.01-42.41 42.407-42.41 23.35 0 42.407 19.02 42.407 42.41zm35.709-4.821v9.641l-18.35 2.941c-3.113.499-5.661 2.828-6.462 5.918-1.274 5.03-3.302 9.851-5.944 14.342-1.651 2.74-1.462 6.189.377 8.769l10.897 15.051-6.793 6.819-15.048-10.899a8.019 8.019 0 0 0-8.774-.4 55.179 55.179 0 0 1-14.34 5.95 8.02 8.02 0 0 0-5.944 6.49l-2.924 18.34h-9.67l-2.924-18.34c-.472-3.149-2.83-5.699-5.896-6.49a54.515 54.515 0 0 1-14.34-5.95c-2.736-1.62-6.227-1.471-8.774.4l-15.047 10.899-6.84-6.819 10.897-15.051c1.887-2.579 2.028-6.029.425-8.769a53.295 53.295 0 0 1-5.944-14.35 8.025 8.025 0 0 0-6.509-5.91l-18.35-2.941v-9.641l18.35-2.939a8.021 8.021 0 0 0 6.509-5.92 53.306 53.306 0 0 1 5.944-14.339c1.604-2.74 1.462-6.191-.425-8.771L35.478 366.02l6.84-6.819 15.047 10.89c2.547 1.87 6.038 2.03 8.774.399a54.115 54.115 0 0 1 14.34-5.938c3.066-.791 5.425-3.341 5.896-6.49l2.924-18.342h9.67l2.924 18.342a8.022 8.022 0 0 0 5.944 6.49c5 1.278 9.812 3.28 14.34 5.95a8.018 8.018 0 0 0 8.774-.411l15.048-10.89 6.793 6.819-10.897 15.051c-1.84 2.58-2.028 6.031-.377 8.771a56.515 56.515 0 0 1 5.944 14.339c.802 3.09 3.349 5.421 6.462 5.92zm15.991-6.828v23.289c0 3.93-2.83 7.281-6.698 7.901l-20.142 3.219c-.991 2.982-2.217 5.9-3.585 8.722l11.934 16.499c2.311 3.192 1.934 7.57-.849 10.35l-16.463 16.471c-2.783 2.779-7.17 3.129-10.331.82l-16.51-11.94c-2.83 1.389-5.708 2.6-8.727 3.61l-3.208 20.11a7.979 7.979 0 0 1-7.878 6.74H82.507c-3.915 0-7.264-2.851-7.925-6.74l-3.208-20.11a72.003 72.003 0 0 1-8.727-3.61l-16.51 11.94c-3.161 2.309-7.548 1.959-10.331-.82l-16.463-16.471c-2.783-2.78-3.113-7.159-.802-10.35l11.934-16.499c-1.415-2.821-2.594-5.74-3.632-8.722L6.75 437.402a7.978 7.978 0 0 1-6.745-7.901v-23.289a7.972 7.972 0 0 1 6.745-7.89l20.095-3.221c1.038-2.989 2.217-5.9 3.632-8.719l-11.934-16.51c-2.311-3.18-1.981-7.57.802-10.35l16.463-16.46c2.783-2.781 7.17-3.131 10.331-.82l16.51 11.94a69.911 69.911 0 0 1 8.727-3.61l3.208-20.121c.66-3.879 4.009-6.729 7.925-6.729h23.303a7.98 7.98 0 0 1 7.878 6.729l3.208 20.121c3.019.999 5.896 2.209 8.727 3.61l16.51-11.94c3.161-2.311 7.548-1.961 10.331.82l16.463 16.46c2.783 2.78 3.16 7.17.849 10.35l-11.934 16.51c1.368 2.819 2.594 5.73 3.585 8.719l20.142 3.221c3.863.619 6.694 3.969 6.694 7.89zm255.997-312.07c0-14.561-11.84-26.411-26.416-26.411-14.529 0-26.416 11.85-26.416 26.411 0 14.56 11.887 26.41 26.416 26.41 14.576 0 26.416-11.849 26.416-26.41zm15.991 0c0 23.39-19.01 42.41-42.407 42.41s-42.407-19.019-42.407-42.41c0-23.381 19.01-42.41 42.407-42.41s42.407 19.029 42.407 42.41zm35.756-4.82v9.64l-18.349 2.939a8.022 8.022 0 0 0-6.51 5.921 53.35 53.35 0 0 1-5.943 14.339c-1.604 2.74-1.462 6.191.424 8.771l10.897 15.06-6.84 6.819-15.048-10.899c-2.547-1.87-6.038-2.031-8.774-.411a54.448 54.448 0 0 1-14.34 5.95c-3.066.791-5.425 3.341-5.896 6.49l-2.925 18.342h-9.67l-2.924-18.342a8.02 8.02 0 0 0-5.944-6.49 54.43 54.43 0 0 1-14.34-5.95 8.018 8.018 0 0 0-8.774.411l-15.048 10.899-6.793-6.819 10.897-15.06c1.84-2.58 2.029-6.031.377-8.771a56.49 56.49 0 0 1-5.943-14.339c-.802-3.09-3.349-5.422-6.462-5.921l-18.35-2.939v-9.64l18.35-2.941c3.113-.499 5.66-2.828 6.462-5.909a56.517 56.517 0 0 1 5.943-14.35c1.651-2.74 1.462-6.189-.377-8.769l-10.897-15.05 6.793-6.817 15.048 10.897a8.034 8.034 0 0 0 8.774.399 55.179 55.179 0 0 1 14.34-5.95 8.022 8.022 0 0 0 5.944-6.489l2.924-18.34h9.67l2.925 18.34c.472 3.146 2.83 5.699 5.896 6.489a54.515 54.515 0 0 1 14.34 5.95c2.736 1.62 6.227 1.47 8.774-.399l15.048-10.897 6.84 6.817-10.897 15.05c-1.887 2.58-2.028 6.029-.424 8.769a53.26 53.26 0 0 1 5.943 14.35 8.023 8.023 0 0 0 6.51 5.909zM512 82.502v23.289a7.973 7.973 0 0 1-6.746 7.89l-20.095 3.221c-1.038 2.989-2.217 5.9-3.632 8.729l11.934 16.5c2.311 3.18 1.981 7.569-.802 10.35l-16.463 16.46a8.03 8.03 0 0 1-10.378.82l-16.463-11.94c-2.83 1.4-5.755 2.6-8.726 3.609l-3.208 20.122c-.66 3.879-4.01 6.729-7.925 6.729h-23.302a7.98 7.98 0 0 1-7.878-6.729l-3.208-20.122c-3.019-.999-5.896-2.209-8.727-3.609l-16.51 11.94c-3.161 2.311-7.594 1.96-10.331-.82l-16.463-16.46c-2.783-2.78-3.16-7.17-.849-10.35l11.934-16.51c-1.368-2.819-2.595-5.73-3.585-8.719l-20.142-3.221c-3.868-.619-6.698-3.969-6.698-7.89V82.502c0-3.93 2.83-7.281 6.698-7.901l20.142-3.219c.99-2.982 2.217-5.9 3.585-8.722l-11.934-16.499c-2.311-3.192-1.934-7.569.849-10.352l16.463-16.468c2.736-2.778 7.17-3.132 10.331-.821l16.51 11.939a69.235 69.235 0 0 1 8.727-3.608l3.208-20.109a7.977 7.977 0 0 1 7.878-6.74h23.302c3.915 0 7.264 2.849 7.925 6.74l3.208 20.109a72.3 72.3 0 0 1 8.726 3.608l16.463-11.939a8.03 8.03 0 0 1 10.378.821L492.66 35.81c2.783 2.783 3.113 7.161.802 10.352l-11.934 16.499c1.415 2.821 2.595 5.74 3.632 8.722l20.095 3.219a7.978 7.978 0 0 1 6.745 7.9zm-155.853 133.73H171.755v100.01c0 5.65 4.623 10.249 10.284 10.249h174.109c5.66 0 10.283-4.599 10.283-10.249v-89.761c-.001-5.659-4.624-10.249-10.284-10.249zm-184.392-40.64v24.64h91.229l-16.51-28.53c-2.359-4.111-6.274-6.361-11.038-6.361h-53.398c-5.66 0-10.283 4.59-10.283 10.251zm109.673 24.639-21.086-36.54c-5.283-9.121-14.34-14.35-24.906-14.35h-53.398c-14.482 0-26.274 11.771-26.274 26.25v140.651c0 14.468 11.793 26.25 26.274 26.25h174.109c14.481 0 26.274-11.782 26.274-26.25v-89.761c0-14.479-11.793-26.25-26.274-26.25zM53.214 303.351c-3.444 0-6.604-2.209-7.642-5.649-22.029-71.65-2.83-149.061 50.096-202.021 47.218-47.178 114.814-67.739 179.816-55.587l-14.67-19.491a8.005 8.005 0 0 1 1.604-11.198c3.538-2.651 8.538-1.944 11.227 1.59l28.114 37.408a8.133 8.133 0 0 1 1.321 6.88c-.66 2.369-2.312 4.321-4.576 5.29l-43.067 18.33a7.95 7.95 0 0 1-3.16.639 8.013 8.013 0 0 1-7.359-4.859c-1.698-4.071.189-8.771 4.245-10.501l20.755-8.83c-59.058-10.16-120.098 8.841-162.929 51.651-48.728 48.75-66.417 120.019-46.133 186 1.274 4.219-1.085 8.701-5.283 10a8.34 8.34 0 0 1-2.359.348zm413.218-89.05c22.029 71.651 2.83 149.061-50.095 202.022-25.661 25.629-57.69 43.889-92.644 52.789a202.39 202.39 0 0 1-49.954 6.25 202.28 202.28 0 0 1-37.218-3.481l14.67 19.521a8.006 8.006 0 0 1-1.604 11.199 7.997 7.997 0 0 1-4.811 1.599 8.085 8.085 0 0 1-6.415-3.19l-28.114-37.409c-1.462-1.96-1.934-4.501-1.321-6.88.613-2.37 2.311-4.321 4.576-5.29l43.067-18.33c4.057-1.74 8.774.161 10.519 4.219 1.698 4.071-.189 8.771-4.245 10.501l-20.755 8.83c59.058 10.14 120.145-8.861 162.929-51.65 48.728-48.75 66.417-120.019 46.133-186-1.321-4.22 1.085-8.701 5.283-10 4.245-1.3 8.726 1.081 9.999 5.3z" opacity="1" data-original="#57a4ff" class=""></path></g></g></svg>