<?xml version="1.0" encoding="UTF-8"?><svg id="Layer_1" xmlns="http://www.w3.org/2000/svg" viewBox="0 0 81.66 101.56"><defs><style>.cls-1{fill:#78776e;}.cls-2{fill:#13706f;}</style></defs><path class="cls-2" d="M60.41,99.46h-19.84v-19.84h19.84v19.84ZM41.06,98.98h18.88v-18.88h-18.88v18.88Z"/><path class="cls-2" d="M61,100.04l-20.81.08v-20.38c0-.34.09-.7.43-.7h20.38v21ZM41.63,98.4h17.72v-17.72h-17.72v17.72Z"/><path class="cls-2" d="M40.86,99.27h-19.46v-19.46h19.46v19.46ZM21.5,99.17h19.26v-19.26h-19.26v19.26Z"/><path class="cls-2" d="M41.44,99.85h-20.62v-20.62h20.62v20.62ZM22.08,98.59h18.15v-18.1h-18.15v18.1Z"/><path class="cls-2" d="M21.5,99.27H2.05v-19.46h19.46v19.46ZM2.14,99.17h19.26v-19.26H2.14v19.26Z"/><path class="cls-2" d="M22.08,99.85H1.47v-20.62h20.62v20.62ZM2.72,98.59h18.1v-18.1H2.72v18.1Z"/><polygon class="cls-1" points="1.72 41.16 2.52 41.16 2.49 21.83 2.49 21.5 1.64 21.45 1.72 40.81 1.72 41.16"/><path class="cls-1" d="M79.97,78.79v-37.18l-.06-.32-.73-.06v18.87h-18.2s.04-19.32.04-19.32h-1.05c-.04-.07-.09-.13-.14-.2l-.17-.27h-17.97s0-.24,0-.24v-17.47h17.38s1.3,0,1.3,0l-.03-20.58h-18.64s.04-.74.04-.74l-21.28.08v21.49h.44s0,17.23,0,17.23h0l.08,20.3-19.63-.24-.07,20.61,21.32.17v-.02l17.66.1v-1.9l1.12,1.24v-18.78l-.13-.67.71.05h17.13l1.42-.05h18.71v17.9h-18.37v1.87l-1.65.02v19.6h21.49v-21.49h-.67ZM78.51,80.92v17.23h-17.23v-17.23h17.23ZM59.34,60.1l.04.04h-17.46v-17.77h17.5v17.73h-.08ZM3.2,78.79v-17.23h17.23v17.23H3.2ZM41.69,3.24h18.47l.26,19.54-1.32-.08v-1.75h-17.44V5.92l.02-2.68ZM40.03,22.76v17.32h-17.91v-17.24l17.91-.08ZM22.56,3.48h17.23v17.23h-17.23V3.48ZM21.73,42.17l18.05.04v17.23l-18.05-.04v-17.23ZM22.56,79.1v-17.54h17.81v17.54h-17.81Z"/><path class="cls-2" d="M79.58,21.83h-19.25l.07-.07-.09-.8-.18-18.59h19.46v19.46ZM60.31,21.29l19.17.44V2.47h-19.26l.09,18.82Z"/><path class="cls-2" d="M79.93,22.18h-19.62v-1.22s-.54,0-.54,0V2.02h20.15v20.15ZM60.57,21.38h18.57V2.82h-18.57v18.56Z"/><path class="cls-2" d="M80.02,41.62h-20.33l.66-20.45,19.67.13v20.33ZM60.66,40.66h18.39v-18.39h-18.39v18.39Z"/><path class="cls-2" d="M80.6,42.2h-21.49v-19.6h0s0-1.89,0-1.89h21.49v21.49ZM61.24,40.08h17.23v-17.23h-17.23v17.23Z"/><path class="cls-2" d="M60.41,80.1h-19.84v-19.84h19.84v19.84ZM41.06,79.62h18.88v-18.88h-18.88v18.88Z"/><path class="cls-2" d="M60.76,80.45h-20.54v-20.54h20.54v20.54ZM41.4,79.27h18.15s.02-.01.02-.02v-18.15h-18.18v18.18Z"/><path class="cls-2" d="M21.94,22.26H1.61V1.94h20.33v20.33ZM2.58,21.3h18.39V2.9H2.58v18.39Z"/><path class="cls-2" d="M22.52,22.84H1.03V1.36h21.49v21.49ZM3.16,20.71h17.23V3.48H3.16v17.23Z"/><path class="cls-2" d="M21.7,60.74H1.85v-19.84h19.84v19.84ZM2.34,60.26h18.88v-18.88H2.34v18.88Z"/><path class="cls-2" d="M22.28,61.56H1.27v-21.25h21v21.25ZM2.92,59.68h17.71v-17.72H2.92v17.72Z"/></svg>